<?xml version="1.0" encoding="utf-8"?>
<!-- Generator: Adobe Illustrator 16.0.3, SVG Export Plug-In . SVG Version: 6.00 Build 0)  -->
<!DOCTYPE svg PUBLIC "-//W3C//DTD SVG 1.1//EN" "http://www.w3.org/Graphics/SVG/1.1/DTD/svg11.dtd">
<svg version="1.1" id="Layer_1" xmlns="http://www.w3.org/2000/svg" xmlns:xlink="http://www.w3.org/1999/xlink" x="0px" y="0px"
	 width="510.164px" height="448.004px" viewBox="224.918 -0.004 510.164 448.004"
	 enable-background="new 224.918 -0.004 510.164 448.004" xml:space="preserve">
<path fill="#FFFFFF" d="M601.603,114.047c65.679,14.626,111.716,39.89,111.716,66.107c0,61.184-18.361,133.99-95.35,205.851
	c-32.625,30.446-85.86,40.236-137.969,40.236S374.651,416.451,342.021,386c-77.009-71.852-95.354-144.667-95.354-205.851
	c0.021-40.599,110.486-78.948,233.343-78.948c25.055,0,49.588,1.597,72.785,4.474L601.603,114.047z"/>
<g>
	<path fill="#010101" d="M327.191,401.906c17.881,16.688,41.772,29.023,71.009,36.676c23.871,6.25,51.394,9.418,81.81,9.418
		c30.422,0,57.935-3.168,81.795-9.418c29.253-7.652,53.144-19.993,71.025-36.676c37.594-35.089,65.132-73.646,81.855-114.613
		c13.738-33.655,20.396-68.708,20.396-107.144c0-30.212-29.493-56.246-85.31-75.295c-10.576-3.607-21.86-6.862-33.696-9.759
		c26.967-33.829,49.46-54.063,69.581-77.647c8.295-12.811-35.155-21.764-55.756-15.295c-6.684,2.097-35.63,30.998-65.857,83.095
		c-27.232-3.79-55.775-5.805-84.039-5.805c-60.546,0-122.414,9.259-169.762,25.411c-55.817,19.049-85.325,45.078-85.325,75.295
		c0,38.431,6.688,73.489,20.417,107.139C262.053,328.26,289.597,366.817,327.191,401.906z M480.01,101.201
		c25.055,0,49.588,1.597,72.785,4.474c-9.305,17.794-18.493,37.752-26.941,59.76c-14.779-1.163-30.161-1.78-45.844-1.78
		c-79.707,0-149.85,15.509-177.552,38.885c-8.229-5.423-11.678-10.596-11.678-14.724c0-5.673,6.086-12.065,17.111-18.003
		c2.648-1.413,3.638-4.719,2.219-7.367c-1.413-2.643-4.714-3.632-7.367-2.214c-15.162,8.147-22.835,17.433-22.835,27.584
		c0,9.877,7.326,18.54,19.922,25.932c5.041,4.332,41.114,30.508,175.603,31.08c1.506,0,3.025,0.005,4.562,0.005
		c1.597,0,3.152-0.005,4.724-0.005c80.902-0.388,125.592-10.637,149.396-19.749c27.992-9.315,45.971-21.799,45.971-37.263
		c0-10.137-7.662-19.406-22.764-27.548c-2.652-1.418-5.953-0.418-7.366,2.219c-1.429,2.647-0.438,5.933,2.209,7.367
		c10.994,5.917,17.044,12.305,17.044,17.968c0,4.122-3.433,9.295-11.657,14.718c-17.075-14.417-50.776-25.886-92.722-32.533
		c13.116-22.029,25.329-40.318,36.772-55.96c65.679,14.626,111.716,39.89,111.716,66.107c0,61.184-18.361,133.99-95.35,205.851
		c-32.625,30.446-85.86,40.236-137.969,40.236S374.651,416.451,342.021,386c-77.009-71.852-95.354-144.667-95.354-205.851
		C246.687,139.55,357.153,101.201,480.01,101.201z M630.438,214.845c-4.312,1.423-9.016,2.832-14.178,4.199
		c-35.043,9.285-81.311,14.544-130.812,14.902c-1.806,0.005-3.602,0.025-5.433,0.025c-5.424,0-10.826-0.061-16.178-0.173
		c1.571-1.602,2.459-3.408,2.459-5.306c0-6.637-10.765-12.03-24.054-12.03c-13.28,0-24.05,5.392-24.05,12.03
		c0,0.995,0.245,1.964,0.704,2.867c-17.142-1.505-33.395-3.653-48.348-6.403c3.444-2.086,5.515-4.745,5.515-7.658
		c0-6.652-10.77-12.024-24.054-12.024c-11.356,0-20.866,3.934-23.391,9.229c-6.091-2.046-11.331-4.153-15.805-6.27
		c27.605-20.08,94.023-33.707,167.206-33.707c14.335,0,28.37,0.51,41.895,1.485c-1.995,5.54-3.948,11.167-5.852,16.953
		c0,0,4.035,3.811,11.091,5.311c13.678,2.903,21.294,0.444,21.294,0.444c3.587-6.52,7.092-12.739,10.546-18.718
		c38.287,5.606,69.535,15.208,87.039,27.37C642.813,209.371,637.824,211.999,630.438,214.845z"/>
	<ellipse fill="#010101" cx="405.414" cy="199.066" rx="24.049" ry="12.03"/>
	<ellipse fill="#010101" cx="468.572" cy="194.474" rx="24.049" ry="12.019"/>
	<ellipse fill="#010101" cx="512.845" cy="216.524" rx="24.049" ry="12.03"/>
	<ellipse fill="#010101" cx="582.967" cy="206.045" rx="24.049" ry="12.03"/>
</g>
</svg>
